<?xml version="1.0" encoding="utf-8"?>
<!-- Generator: Adobe Illustrator 19.0.0, SVG Export Plug-In . SVG Version: 6.00 Build 0)  -->
<svg version="1.1" id="Calque_1" xmlns="http://www.w3.org/2000/svg" xmlns:xlink="http://www.w3.org/1999/xlink" x="0px" y="0px"
	 viewBox="0 0 88.3 23" style="enable-background:new 0 0 88.3 23;" xml:space="preserve">
<g id="XMLID_644_">
	<g id="XMLID_651_">
		<path id="XMLID_101_" d="M12.1,19.9c-4.5,0-8.1-3.6-8.1-8.1c0-4.5,3.6-8.1,8.1-8.1s8.1,3.6,8.1,8.1C20.1,16.3,16.5,19.9,12.1,19.9
			z M12.1,5.2c-3.6,0-6.6,3-6.6,6.6c0,3.6,3,6.6,6.6,6.6s6.6-3,6.6-6.6C18.6,8.2,15.7,5.2,12.1,5.2z"/>
	</g>
	<g id="XMLID_645_">
		<path id="XMLID_98_" d="M20.4,19.9c-4.5,0-8.1-3.6-8.1-8.1c0-4.5,3.6-8.1,8.1-8.1s8.1,3.6,8.1,8.1C28.5,16.3,24.9,19.9,20.4,19.9z
			 M20.4,5.2c-3.6,0-6.6,3-6.6,6.6c0,3.6,3,6.6,6.6,6.6s6.6-3,6.6-6.6C27,8.2,24,5.2,20.4,5.2z"/>
	</g>
</g>
<g id="XMLID_79_">
	<g id="XMLID_80_">
		<path d="M45.2,12.1c0,1.1-0.3,2-0.9,2.7s-1.4,1-2.4,1c-1.1,0-1.9-0.3-2.4-1c-0.6-0.6-0.9-1.6-0.9-2.7c0-1.2,0.3-2.1,0.9-2.7
			s1.4-1,2.5-1c1,0,1.8,0.3,2.4,1S45.2,10.9,45.2,12.1z M39.5,12.1c0,0.9,0.2,1.7,0.6,2.2c0.4,0.5,1,0.7,1.8,0.7
			c0.8,0,1.3-0.2,1.7-0.7s0.6-1.2,0.6-2.2c0-1-0.2-1.7-0.6-2.2s-1-0.7-1.7-0.7c-0.8,0-1.4,0.2-1.8,0.7
			C39.7,10.4,39.5,11.1,39.5,12.1z"/>
	</g>
	<g id="XMLID_83_">
		<path d="M52,10.6c0,0.7-0.2,1.3-0.7,1.7c-0.5,0.4-1.2,0.6-2.1,0.6h-0.8v2.8h-0.9V8.5h1.9C51.1,8.5,52,9.2,52,10.6z M48.4,12.1h0.7
			c0.7,0,1.2-0.1,1.5-0.3c0.3-0.2,0.5-0.6,0.5-1.1c0-0.5-0.1-0.8-0.4-1c-0.3-0.2-0.8-0.3-1.4-0.3h-0.9V12.1z"/>
	</g>
	<g id="XMLID_86_">
		<path d="M58.2,15.6h-4V8.5h4v0.8h-3.1v2.2H58v0.8h-2.9v2.5h3.1V15.6z"/>
	</g>
	<g id="XMLID_88_">
		<path d="M66.1,15.6h-1l-3.8-5.9h0l0,0.4c0,0.6,0.1,1.1,0.1,1.5v4h-0.8V8.5h1l0.2,0.3l2.3,3.6l1.2,1.9h0c0-0.1,0-0.4,0-0.8
			c0-0.5,0-0.8,0-1v-4h0.8V15.6z"/>
	</g>
	<g id="XMLID_90_">
		<path d="M75,12.1c0,1.1-0.3,2-0.9,2.7c-0.6,0.7-1.4,1-2.4,1c-1.1,0-1.9-0.3-2.4-1c-0.6-0.6-0.9-1.6-0.9-2.7c0-1.2,0.3-2.1,0.9-2.7
			s1.4-1,2.5-1c1,0,1.8,0.3,2.4,1S75,10.9,75,12.1z M69.4,12.1c0,0.9,0.2,1.7,0.6,2.2c0.4,0.5,1,0.7,1.8,0.7c0.8,0,1.3-0.2,1.7-0.7
			c0.4-0.5,0.6-1.2,0.6-2.2c0-1-0.2-1.7-0.6-2.2c-0.4-0.5-1-0.7-1.7-0.7c-0.8,0-1.4,0.2-1.8,0.7C69.6,10.4,69.4,11.1,69.4,12.1z"/>
	</g>
	<g id="XMLID_93_">
		<path d="M79.3,15.6h-2.6v-0.5l0.8-0.2V9.2L76.7,9V8.5h2.6V9l-0.8,0.2v5.7l0.8,0.2V15.6z"/>
	</g>
	<g id="XMLID_95_">
		<path d="M81.4,15.6V8.5h0.9v6.3h3.1v0.8H81.4z"/>
	</g>
</g>
</svg>
