<?xml version="1.0" encoding="utf-8"?>
<!-- Generator: Adobe Illustrator 19.0.0, SVG Export Plug-In . SVG Version: 6.00 Build 0)  -->
<svg version="1.1" id="Calque_1" xmlns="http://www.w3.org/2000/svg" xmlns:xlink="http://www.w3.org/1999/xlink" x="0px" y="0px"
	 viewBox="0 0 100 94.2" style="enable-background:new 0 0 100 94.2;" xml:space="preserve">
<g id="XMLID_12_">
	<g id="XMLID_1447_">
		<g id="XMLID_1449_">
			<path id="XMLID_5_" d="M29,92.2c-14.7,0-26.6-11.9-26.6-26.6S14.3,39,29,39c14.7,0,26.6,11.9,26.6,26.6S43.7,92.2,29,92.2z
				 M29,42C16,42,5.4,52.6,5.4,65.6c0,13,10.6,23.6,23.6,23.6s23.6-10.6,23.6-23.6C52.6,52.6,42,42,29,42z"/>
		</g>
		<g id="XMLID_1448_">
			<path id="XMLID_2_" d="M64.4,92.2c-14.7,0-26.6-11.9-26.6-26.6S49.7,39,64.4,39s26.6,11.9,26.6,26.6S79.1,92.2,64.4,92.2z
				 M64.4,42c-13,0-23.6,10.6-23.6,23.6c0,13,10.6,23.6,23.6,23.6c13,0,23.6-10.6,23.6-23.6C88,52.6,77.5,42,64.4,42z"/>
		</g>
	</g>
	<g id="XMLID_1_">
		<g id="XMLID_155_">
			<path id="XMLID_170_" d="M15.9,10.2c0,2.4-0.6,4.3-1.8,5.7c-1.2,1.4-2.9,2.1-5.1,2.1c-2.2,0-3.9-0.7-5.2-2S2,12.6,2,10.2
				c0-2.5,0.6-4.4,1.8-5.7s2.9-2,5.2-2c2.2,0,3.9,0.7,5.1,2.1S15.9,7.7,15.9,10.2z M4,10.2c0,2,0.4,3.5,1.3,4.6s2.1,1.6,3.7,1.6
				c1.6,0,2.8-0.5,3.7-1.5c0.8-1,1.3-2.6,1.3-4.6c0-2-0.4-3.5-1.2-4.6c-0.8-1-2.1-1.5-3.7-1.5c-1.6,0-2.9,0.5-3.7,1.6S4,8.2,4,10.2z
				"/>
			<path id="XMLID_167_" d="M29.9,7.1c0,1.5-0.5,2.7-1.6,3.5s-2.5,1.2-4.4,1.2h-1.7v5.9h-1.9V2.7h4C28,2.7,29.9,4.1,29.9,7.1z
				 M22.2,10.2h1.5c1.5,0,2.6-0.2,3.3-0.7c0.7-0.5,1-1.3,1-2.3c0-1-0.3-1.7-0.9-2.2c-0.6-0.5-1.6-0.7-2.9-0.7h-1.9V10.2z"/>
			<path id="XMLID_165_" d="M42.5,17.7h-8.4V2.7h8.4v1.7H36V9h6.1v1.7H36v5.4h6.5V17.7z"/>
			<path id="XMLID_163_" d="M58.9,17.7h-2.2L48.6,5.2h-0.1L48.5,6c0.1,1.3,0.1,2.3,0.1,3.3v8.4h-1.8V2.7h2.2l0.5,0.7l5,7.7l2.6,4.1
				h0.1c0-0.2,0-0.8-0.1-1.8s-0.1-1.7-0.1-2.2V2.7h1.8V17.7z"/>
			<path id="XMLID_160_" d="M77.2,10.2c0,2.4-0.6,4.3-1.8,5.7c-1.2,1.4-2.9,2.1-5.1,2.1c-2.2,0-3.9-0.7-5.2-2
				c-1.2-1.4-1.8-3.3-1.8-5.7c0-2.5,0.6-4.4,1.8-5.7s2.9-2,5.2-2c2.2,0,3.9,0.7,5.1,2.1S77.2,7.7,77.2,10.2z M65.2,10.2
				c0,2,0.4,3.5,1.3,4.6s2.1,1.6,3.7,1.6c1.6,0,2.8-0.5,3.7-1.5c0.8-1,1.3-2.6,1.3-4.6c0-2-0.4-3.5-1.2-4.6c-0.8-1-2.1-1.5-3.7-1.5
				c-1.6,0-2.9,0.5-3.7,1.6S65.2,8.2,65.2,10.2z"/>
			<path id="XMLID_158_" d="M85.8,17.7h-5.4v-1.1l1.8-0.4V4.2l-1.8-0.4V2.7h5.4v1.1L84,4.2v12.1l1.8,0.4V17.7z"/>
			<path id="XMLID_156_" d="M89.8,17.7V2.7h1.9V16h6.6v1.7H89.8z"/>
		</g>
	</g>
</g>
</svg>
